<mxfile host="app.diagrams.net" agent="Mozilla/5.0 (Windows NT 10.0; Win64; x64) AppleWebKit/537.36 (KHTML, like Gecko) Chrome/138.0.0.0 Safari/537.36" version="28.0.4" pages="2">
  <diagram name="第 1 页" id="UEChJEdqUGz8c6CnLnnZ">
    <mxGraphModel dx="1042" dy="527" grid="1" gridSize="10" guides="1" tooltips="1" connect="1" arrows="1" fold="1" page="1" pageScale="1" pageWidth="827" pageHeight="1169" math="0" shadow="0">
      <root>
        <mxCell id="0" />
        <mxCell id="1" parent="0" />
      </root>
    </mxGraphModel>
  </diagram>
  <diagram id="viM26aGlP5g-H8lanqZq" name="第 2 页">
    <mxGraphModel dx="1042" dy="527" grid="1" gridSize="10" guides="1" tooltips="1" connect="1" arrows="1" fold="1" page="1" pageScale="1" pageWidth="827" pageHeight="1169" math="0" shadow="0">
      <root>
        <mxCell id="0" />
        <mxCell id="1" parent="0" />
        <mxCell id="ohFjfj_geB93eM5i6b3r-1" value="" style="rounded=0;whiteSpace=wrap;html=1;fillColor=light-dark(#FFCCE6,#B3B3B3);dashed=1;strokeColor=light-dark(#000000,#000000);strokeWidth=2;" parent="1" vertex="1">
          <mxGeometry x="70" y="20" width="670" height="440" as="geometry" />
        </mxCell>
        <mxCell id="ohFjfj_geB93eM5i6b3r-4" value="" style="rounded=0;whiteSpace=wrap;html=1;fillColor=none;strokeColor=light-dark(#000000,#000000);glass=0;strokeWidth=3;" parent="1" vertex="1">
          <mxGeometry x="120" y="100" width="610" height="350" as="geometry" />
        </mxCell>
        <mxCell id="ohFjfj_geB93eM5i6b3r-10" value="&lt;font style=&quot;font-size: 16px;&quot;&gt;主进程&lt;/font&gt;" style="rounded=1;whiteSpace=wrap;html=1;fillColor=light-dark(#FFFFFF,#6666FF);" parent="1" vertex="1">
          <mxGeometry x="81" y="30" width="120" height="60" as="geometry" />
        </mxCell>
        <mxCell id="ohFjfj_geB93eM5i6b3r-11" value="&lt;font style=&quot;font-size: 16px;&quot;&gt;主渲染进程&lt;/font&gt;" style="rounded=1;whiteSpace=wrap;html=1;fillColor=light-dark(#FFFFFF,#6666FF);" parent="1" vertex="1">
          <mxGeometry x="150" y="120" width="120" height="60" as="geometry" />
        </mxCell>
        <mxCell id="ohFjfj_geB93eM5i6b3r-12" value="&lt;font style=&quot;font-size: 27px; color: light-dark(rgb(0, 0, 0), rgb(51, 153, 255));&quot;&gt;Electron框架&lt;/font&gt;" style="text;strokeColor=light-dark(#10739E,#FFFFFF);align=center;fillColor=#b1ddf0;html=1;verticalAlign=middle;whiteSpace=wrap;rounded=1;" parent="1" vertex="1">
          <mxGeometry x="289" y="30" width="250" height="30" as="geometry" />
        </mxCell>
        <mxCell id="ohFjfj_geB93eM5i6b3r-13" value="&lt;font style=&quot;font-size: 16px;&quot;&gt;统&lt;/font&gt;&lt;div&gt;&lt;font style=&quot;font-size: 16px;&quot;&gt;一&lt;/font&gt;&lt;/div&gt;&lt;div&gt;&lt;font style=&quot;font-size: 16px;&quot;&gt;菜&lt;/font&gt;&lt;/div&gt;&lt;div&gt;&lt;font style=&quot;font-size: 16px;&quot;&gt;单&lt;/font&gt;&lt;/div&gt;" style="rounded=1;whiteSpace=wrap;html=1;fillColor=light-dark(#FFFFFF,#009900);" parent="1" vertex="1">
          <mxGeometry x="151" y="210" width="80" height="230" as="geometry" />
        </mxCell>
        <mxCell id="ohFjfj_geB93eM5i6b3r-14" value="&lt;font style=&quot;font-size: 16px;&quot;&gt;统一消息&lt;/font&gt;" style="rounded=1;whiteSpace=wrap;html=1;fillColor=light-dark(#FFFFFF,#009900);" parent="1" vertex="1">
          <mxGeometry x="448" y="120" width="120" height="60" as="geometry" />
        </mxCell>
        <mxCell id="ohFjfj_geB93eM5i6b3r-15" value="&lt;font style=&quot;font-size: 16px;&quot;&gt;统一登录&lt;/font&gt;" style="rounded=1;whiteSpace=wrap;html=1;fillColor=light-dark(#FFFFFF,#009900);" parent="1" vertex="1">
          <mxGeometry x="597" y="120" width="120" height="60" as="geometry" />
        </mxCell>
        <mxCell id="ohFjfj_geB93eM5i6b3r-16" value="&lt;font style=&quot;font-size: 16px;&quot;&gt;统一搜索&lt;/font&gt;" style="rounded=1;whiteSpace=wrap;html=1;fillColor=light-dark(#FFFFFF,#009900);" parent="1" vertex="1">
          <mxGeometry x="295" y="120" width="120" height="60" as="geometry" />
        </mxCell>
        <mxCell id="ohFjfj_geB93eM5i6b3r-19" value="" style="group" parent="1" vertex="1" connectable="0">
          <mxGeometry x="495" y="210" width="200" height="230" as="geometry" />
        </mxCell>
        <mxCell id="ohFjfj_geB93eM5i6b3r-3" value="" style="rounded=0;whiteSpace=wrap;html=1;fillColor=light-dark(#FFFFFF,#3399FF);" parent="ohFjfj_geB93eM5i6b3r-19" vertex="1">
          <mxGeometry x="24" width="200" height="230" as="geometry" />
        </mxCell>
        <mxCell id="ohFjfj_geB93eM5i6b3r-7" value="&lt;h1 style=&quot;box-sizing: border-box; color: rgb(227, 227, 227); font-family: system-ui, -apple-system, &amp;quot;Segoe UI&amp;quot;, Roboto, Ubuntu, Cantarell, &amp;quot;Noto Sans&amp;quot;, sans-serif, BlinkMacSystemFont, &amp;quot;Segoe UI&amp;quot;, Helvetica, Arial, sans-serif, &amp;quot;Apple Color Emoji&amp;quot;, &amp;quot;Segoe UI Emoji&amp;quot;, &amp;quot;Segoe UI Symbol&amp;quot;; line-height: 1.25; margin: 0px 0px 25px; --ifm-h2-font-size: 1.6rem; --ifm-h3-font-size: 1.2rem; --ifm-h4-font-size: 1rem; --ifm-h5-font-size: .8rem; --ifm-h1-font-size: 3rem; text-align: start;&quot;&gt;&lt;font style=&quot;font-size: 16px;&quot;&gt;BrowserView&lt;/font&gt;&lt;/h1&gt;" style="text;strokeColor=none;align=center;fillColor=none;html=1;verticalAlign=middle;whiteSpace=wrap;rounded=0;" parent="ohFjfj_geB93eM5i6b3r-19" vertex="1">
          <mxGeometry x="150" y="13" width="40" height="20" as="geometry" />
        </mxCell>
        <mxCell id="ohFjfj_geB93eM5i6b3r-9" value="&lt;font style=&quot;font-size: 16px;&quot;&gt;地调业务页面&lt;/font&gt;" style="rounded=1;whiteSpace=wrap;html=1;fillColor=light-dark(#FFFFFF,#6666FF);" parent="ohFjfj_geB93eM5i6b3r-19" vertex="1">
          <mxGeometry x="64" y="90" width="120" height="60" as="geometry" />
        </mxCell>
        <mxCell id="ohFjfj_geB93eM5i6b3r-18" value="" style="group;fillColor=none;" parent="1" vertex="1" connectable="0">
          <mxGeometry x="296" y="210" width="190" height="230" as="geometry" />
        </mxCell>
        <mxCell id="ohFjfj_geB93eM5i6b3r-2" value="" style="rounded=0;whiteSpace=wrap;html=1;fillColor=light-dark(#FFFFFF,#B266FF);" parent="ohFjfj_geB93eM5i6b3r-18" vertex="1">
          <mxGeometry width="190" height="230" as="geometry" />
        </mxCell>
        <mxCell id="ohFjfj_geB93eM5i6b3r-5" value="&lt;h1 style=&quot;box-sizing: border-box; color: rgb(227, 227, 227); font-family: system-ui, -apple-system, &amp;quot;Segoe UI&amp;quot;, Roboto, Ubuntu, Cantarell, &amp;quot;Noto Sans&amp;quot;, sans-serif, BlinkMacSystemFont, &amp;quot;Segoe UI&amp;quot;, Helvetica, Arial, sans-serif, &amp;quot;Apple Color Emoji&amp;quot;, &amp;quot;Segoe UI Emoji&amp;quot;, &amp;quot;Segoe UI Symbol&amp;quot;; line-height: 1.25; margin: 0px 0px 25px; --ifm-h2-font-size: 1.6rem; --ifm-h3-font-size: 1.2rem; --ifm-h4-font-size: 1rem; --ifm-h5-font-size: .8rem; --ifm-h1-font-size: 3rem; text-align: start;&quot;&gt;&lt;font style=&quot;font-size: 16px;&quot;&gt;BrowserView&lt;/font&gt;&lt;/h1&gt;" style="text;strokeColor=none;align=center;fillColor=none;html=1;verticalAlign=middle;whiteSpace=wrap;rounded=0;" parent="ohFjfj_geB93eM5i6b3r-18" vertex="1">
          <mxGeometry x="116" y="13" width="40" height="20" as="geometry" />
        </mxCell>
        <mxCell id="ohFjfj_geB93eM5i6b3r-8" value="&lt;font style=&quot;font-size: 16px;&quot;&gt;省调业务页面&lt;/font&gt;" style="rounded=1;whiteSpace=wrap;html=1;fillColor=light-dark(#FFFFFF,#6666FF);" parent="ohFjfj_geB93eM5i6b3r-18" vertex="1">
          <mxGeometry x="35" y="90" width="120" height="60" as="geometry" />
        </mxCell>
      </root>
    </mxGraphModel>
  </diagram>
</mxfile>
